<svg xmlns="http://www.w3.org/2000/svg" version="1.1" xmlns:xlink="http://www.w3.org/1999/xlink" xmlns:svgjs="http://svgjs.dev/svgjs" width="2000" height="1247" viewBox="0 0 2000 1247"><g transform="matrix(1,0,0,1,-1.2121212121212466,0.504858299595071)"><svg viewBox="0 0 396 247" data-background-color="#161618" preserveAspectRatio="xMidYMid meet" height="1247" width="2000" xmlns="http://www.w3.org/2000/svg" xmlns:xlink="http://www.w3.org/1999/xlink"><g id="tight-bounds" transform="matrix(1,0,0,1,0.2400000000000091,-0.09999999999999432)"><svg viewBox="0 0 395.52 247.2" height="247.2" width="395.52"><g><svg></svg></g><g><svg viewBox="0 0 395.52 247.2" height="247.2" width="395.52"><g transform="matrix(1,0,0,1,75.54432,73.57100442417331)"><svg viewBox="0 0 244.43135999999998 100.05799115165337" height="100.05799115165337" width="244.43135999999998"><g><svg viewBox="0 0 244.43135999999998 100.05799115165337" height="100.05799115165337" width="244.43135999999998"><g><svg viewBox="0 0 244.43135999999998 100.05799115165337" height="100.05799115165337" width="244.43135999999998"><g><svg viewBox="0 0 244.43135999999998 100.05799115165337" height="100.05799115165337" width="244.43135999999998"><g id="textblocktransform"><svg viewBox="0 0 244.43135999999998 100.05799115165337" height="100.05799115165337" width="244.43135999999998" id="textblock"><g><svg viewBox="0 0 244.43135999999998 100.05799115165337" height="100.05799115165337" width="244.43135999999998"><g transform="matrix(1,0,0,1,0,0)"><svg width="244.43135999999998" viewBox="0.800000011920929 -32.54999923706055 87.69999694824219 35.89999771118164" height="100.05799115165337" data-palette-color="#ffffff"><path d="M21.15-2.05L21.15-2.05Q19.95-0.2 19.95 0.35 19.95 0.9 20.4 1.15L20.4 1.15Q20.4 1.2 19.5 1.9L19.5 1.9Q18.7 2.3 17.7 2.3 16.7 2.3 16.25 2.08 15.8 1.85 15.95 1.35L15.95 1.35Q16.65-0.9 21.2-7.68 25.75-14.45 27.3-17.25L27.3-17.25Q30.65-23.3 30.65-26.9L30.65-26.9Q30.65-28.4 30.15-29.45L30.15-29.45Q29.15-31.5 25.4-31.5L25.4-31.5Q19.55-31.5 13.3-26.45L13.3-26.45Q8.3-22.4 5.65-17.88 3-13.35 3-9.8L3-9.8Q3-4.7 7.5-4.6L7.5-4.6Q7.7-4.6 7.9-4.6L7.9-4.6Q13.65-4.6 16.8-8.75L16.8-8.75Q18-10.4 18-11.55 18-12.7 17.5-13L17.5-13Q17.45-13.05 17.45-13.2 17.45-13.35 17.75-13.35L17.75-13.35Q19.05-13.35 19.05-11.65L19.05-11.65Q19.05-10.6 18.03-8.8 17-7 14.4-5.4 11.8-3.8 8.35-3.8 4.9-3.8 2.85-5.95 0.8-8.1 0.8-11.6L0.8-11.6Q0.8-19.5 11.1-27.75L11.1-27.75Q13.75-29.85 18.07-31.2 22.4-32.55 26.35-32.55 30.3-32.55 31.73-31.18 33.15-29.8 33.15-27.5L33.15-27.5Q33.15-24 30.3-18.05L30.3-18.05Q29.4-16.2 26.25-11.3L26.25-11.3 30.1-16.2Q32.9-19.85 39.8-26.6L39.8-26.6Q41.3-28.05 43.13-29.03 44.95-30 46.25-30L46.25-30Q48.05-30 48.05-28.1L48.05-28.1Q48.05-26.45 46.48-23.13 44.9-19.8 43.3-16.82 41.7-13.85 41.35-12.93 41-12 40.85-11.45 40.7-10.9 40.65-10.85L40.65-10.85Q40.8-11.1 43.95-14.68 47.1-18.25 53.25-23.6L53.25-23.6 61.25-30.2Q62.2-31 62.95-31 63.7-31 64.17-29.75 64.65-28.5 64.65-27.73 64.65-26.95 62.25-24.5L62.25-24.5Q56-18.1 51.65-10.5 47.3-2.9 47.3 0.35L47.3 0.35Q47.3 1.2 47.6 1.53 47.9 1.85 48.55 1.73 49.2 1.6 51.28 0.7 53.35-0.2 54-0.35L54-0.35Q54.25-0.25 54.25-0.1L54.25-0.1Q54.25 0.65 51.63 2 49 3.35 47.68 3.35 46.35 3.35 46.05 2.9L46.05 2.9Q45.15 1.6 45.15-0.25L45.15-0.25Q45.15-4.55 49.75-12.6L49.75-12.6Q52.7-17.65 58.85-26.2L58.85-26.2Q54.05-22.3 45.85-14.25 37.65-6.2 35.1-1.65L35.1-1.65Q33.8 0.7 31.95 0.7L31.95 0.7Q31.1 0.7 31.1 0.1L31.1 0.1Q31.1-0.1 32.13-1.7 33.15-3.3 36.65-9.2L36.65-9.2Q45.25-24.15 45.25-27.2L45.25-27.2Q45.25-28 44.7-28L44.7-28Q43.9-28 42.35-26.65L42.35-26.65Q36.8-22 30.55-14.5 24.3-7 21.15-2.05ZM67.65-20.4Q68.4-20.4 69.07-19.93 69.75-19.45 69.75-18.8 69.75-18.15 69.12-17.68 68.5-17.2 67.75-17.2 67-17.2 66.37-17.75 65.75-18.3 65.75-19L65.75-19Q65.75-20.4 67.65-20.4L67.65-20.4ZM58.6 0.55L58.6 0.55Q56.05 0.55 56.05-2.75L56.05-2.75Q56.05-5.45 59-10.23 61.95-15 63.75-15.05L63.75-15.05Q64.25-15.05 64.87-14.65 65.5-14.25 65.5-13.85L65.5-13.85Q65.25-13.5 64.9-13.08 64.55-12.65 64.15-12.15 63.75-11.65 63.05-10.73 62.35-9.8 61.7-8.95L61.7-8.95Q57.95-4.1 57.95-2.27 57.95-0.45 59.2-0.45L59.2-0.45Q60.25-0.45 62.05-1.6L62.05-1.6Q66.25-4.2 68.7-7.3L68.7-7.3Q69.6-8.45 69.92-8.45 70.25-8.45 70.25-8.05 70.25-7.65 69.1-6.45 67.95-5.25 67.27-4.55 66.6-3.85 66.35-3.63 66.1-3.4 65.42-2.78 64.75-2.15 64.4-1.9 64.05-1.65 63.4-1.15 62.75-0.65 62.25-0.43 61.75-0.2 61.1 0.1L61.1 0.1Q60.05 0.55 58.6 0.55ZM81.15-16.1L81.15-16.1 88.35-16.2Q88.5-16.1 88.5-16.05L88.5-16.05Q88.5-15.6 82.27-14.8 76.05-14 75.55-13.85L75.55-13.85Q74.6-13 72.05-8.78 69.5-4.55 69.5-2.6L69.5-2.6Q69.5-0.75 72.05-0.75L72.05-0.75Q73.25-0.75 75.2-1.5 77.15-2.25 78.2-2.9L78.2-2.9Q81-4.65 84.2-8.05L84.2-8.05Q84.9-8.75 85.15-8.75L85.15-8.75Q85.3-8.75 85.3-8.45 85.3-8.15 84.55-7.25L84.55-7.25Q81.95-4.05 78.7-2.1L78.7-2.1Q74.8 0.3 71.25 0.3L71.25 0.3Q69.7 0.3 68.72-0.38 67.75-1.05 67.75-3.1 67.75-5.15 69.55-8.72 71.35-12.3 72.3-14.05L72.3-14.05Q71.6-13.9 71.1-13.9L71.1-13.9Q69.65-13.9 69.65-15.05L69.65-15.05Q69.65-15.9 70.85-16.25L70.85-16.25Q71-16.25 71.3-16.3L71.3-16.3 74.2-16.3Q75.1-17.45 76.25-18.95L76.25-18.95Q77.65-20.75 78.15-20.75 78.65-20.75 79.4-20.35 80.15-19.95 80.15-19.4 80.15-18.85 77.75-16.15L77.75-16.15Q79.05-16.1 81.15-16.1Z" opacity="1" transform="matrix(1,0,0,1,0,0)" fill="#ffffff" class="undefined-text-0" data-fill-palette-color="primary" id="text-0"></path></svg></g></svg></g></svg></g></svg></g></svg></g></svg></g></svg></g><g><path d="M245.816 0c68.262 0 123.6 55.338 123.6 123.6 0 68.262-55.338 123.6-123.6 123.6-45.733 0-85.665-24.838-107.042-61.76l5.248 0c20.898 34.326 58.669 57.249 101.794 57.248 65.771 0 119.088-53.318 119.088-119.088 0-65.771-53.318-119.088-119.088-119.088-43.125 0-80.896 22.923-101.794 57.248l-5.248 0c21.377-36.922 61.309-61.76 107.042-61.76z" fill="#ffffff" stroke="transparent" data-fill-palette-color="tertiary"></path></g></svg></g><defs></defs></svg><rect width="395.52" height="247.2" fill="none" stroke="none" visibility="hidden"></rect></g></svg></g></svg>